<?xml version="1.0" encoding="utf-8"?>
<!-- Generator: Adobe Illustrator 16.0.0, SVG Export Plug-In . SVG Version: 6.00 Build 0)  -->
<!DOCTYPE svg PUBLIC "-//W3C//DTD SVG 1.1//EN" "http://www.w3.org/Graphics/SVG/1.1/DTD/svg11.dtd">
<svg version="1.1" id="Layer_1" xmlns="http://www.w3.org/2000/svg" xmlns:xlink="http://www.w3.org/1999/xlink" x="0px" y="0px"
	 width="576px" height="144px" viewBox="0 0 576 144" enable-background="new 0 0 576 144" xml:space="preserve">
<g>
	<defs>
		<rect id="SVGID_1_" width="576" height="144"/>
	</defs>
	<clipPath id="SVGID_2_">
		<use xlink:href="#SVGID_1_"  overflow="visible"/>
	</clipPath>
	<g clip-path="url(#SVGID_2_)">
		<defs>
			<rect id="SVGID_3_" width="576" height="144"/>
		</defs>
		<clipPath id="SVGID_4_">
			<use xlink:href="#SVGID_3_"  overflow="visible"/>
		</clipPath>
		<g opacity="0.5" clip-path="url(#SVGID_4_)">
			<g>
				<defs>
					<rect id="SVGID_5_" x="25.527" y="71.701" width="61.382" height="43.773"/>
				</defs>
				<clipPath id="SVGID_6_">
					<use xlink:href="#SVGID_5_"  overflow="visible"/>
				</clipPath>
				<polygon clip-path="url(#SVGID_6_)" fill="#8DD6F7" points="27.109,115.474 86.91,81.492 70.905,71.701 27.953,97.157 
					25.527,98.882 				"/>
			</g>
		</g>
	</g>
	<polygon clip-path="url(#SVGID_2_)" fill="#2081AA" points="27.109,51.903 27.109,117.124 7.737,107.335 7.737,41.544 	"/>
	<polygon clip-path="url(#SVGID_2_)" fill="#1B6DAC" points="67.489,120.432 25.666,98.815 7.737,107.335 68.337,139.889 	"/>
	<g clip-path="url(#SVGID_2_)">
		<defs>
			<rect id="SVGID_7_" width="576" height="144"/>
		</defs>
		<clipPath id="SVGID_8_">
			<use xlink:href="#SVGID_7_"  overflow="visible"/>
		</clipPath>
		<g opacity="0.5" clip-path="url(#SVGID_8_)">
			<g>
				<defs>
					<rect id="SVGID_9_" x="49.324" y="6.989" width="19.372" height="78.023"/>
				</defs>
				<clipPath id="SVGID_10_">
					<use xlink:href="#SVGID_9_"  overflow="visible"/>
				</clipPath>
				<path clip-path="url(#SVGID_10_)" fill="#8DD6F7" d="M67.096,7.787c-0.307-0.211,0.293-0.535,0-0.758
					c-0.003-0.004-0.452-0.136,0,0.105c0.013,0.007,0.013-0.138,0-0.144L49.785,17.203l-0.461,67.809l19.372-11.039l-1.6-65.775
					C66.821,8.083,67.331,7.95,67.096,7.787"/>
			</g>
		</g>
		<g opacity="0.5" clip-path="url(#SVGID_8_)">
			<g>
				<defs>
					<rect id="SVGID_11_" x="110.637" y="38.305" width="17.477" height="77.589"/>
				</defs>
				<clipPath id="SVGID_12_">
					<use xlink:href="#SVGID_11_"  overflow="visible"/>
				</clipPath>
				<polygon clip-path="url(#SVGID_12_)" fill="#8DD6F7" points="128.114,106.084 128.114,38.305 110.637,48.76 110.637,115.895 
									"/>
			</g>
		</g>
		<g opacity="0.5" clip-path="url(#SVGID_8_)">
			<g>
				<defs>
					<rect id="SVGID_13_" x="68.312" y="96.227" width="59.802" height="43.662"/>
				</defs>
				<clipPath id="SVGID_14_">
					<use xlink:href="#SVGID_13_"  overflow="visible"/>
				</clipPath>
				<polygon clip-path="url(#SVGID_14_)" fill="#8DD6F7" points="68.336,139.889 128.114,105.963 111.546,96.227 69.156,121.628 
					68.313,121.15 				"/>
			</g>
		</g>
		<g opacity="0.5" clip-path="url(#SVGID_8_)">
			<g>
				<defs>
					<rect id="SVGID_15_" x="54.316" y="72.303" width="73.798" height="43.592"/>
				</defs>
				<clipPath id="SVGID_16_">
					<use xlink:href="#SVGID_15_"  overflow="visible"/>
				</clipPath>
				<path clip-path="url(#SVGID_16_)" fill="#8DD6F7" d="M112.33,114.931l15.785-8.847L71.327,72.303l-17.011,7.831l56.322,35.761
					C111.221,115.368,111.495,115.186,112.33,114.931"/>
			</g>
		</g>
		<g opacity="0.5" clip-path="url(#SVGID_8_)">
			<g>
				<defs>
					<rect id="SVGID_17_" x="68.336" y="62.371" width="19.348" height="77.518"/>
				</defs>
				<clipPath id="SVGID_18_">
					<use xlink:href="#SVGID_17_"  overflow="visible"/>
				</clipPath>
				<polygon clip-path="url(#SVGID_18_)" fill="#8DD6F7" points="87.684,128.908 87.684,62.37 68.773,73.687 68.336,139.889 				"/>
			</g>
		</g>
	</g>
	<polygon clip-path="url(#SVGID_2_)" fill="#299BCD" points="68.646,73.675 68.336,139.889 49.324,129.729 49.324,63.592 	"/>
	<g clip-path="url(#SVGID_2_)">
		<defs>
			<rect id="SVGID_19_" width="576" height="144"/>
		</defs>
		<clipPath id="SVGID_20_">
			<use xlink:href="#SVGID_19_"  overflow="visible"/>
		</clipPath>
		<g opacity="0.5" clip-path="url(#SVGID_20_)">
			<g>
				<defs>
					<rect id="SVGID_21_" x="7.687" y="6.892" width="120.427" height="45.007"/>
				</defs>
				<clipPath id="SVGID_22_">
					<use xlink:href="#SVGID_21_"  overflow="visible"/>
				</clipPath>
				<polygon clip-path="url(#SVGID_22_)" fill="#8DD6F7" points="128.114,38.301 110.644,48.766 67.018,26.142 66.819,26.256 
					66.761,26.298 27.108,51.899 7.687,41.69 23.876,32.577 25.528,31.709 49.818,17.214 67.103,6.892 84.018,15.577 84.374,15.762 
									"/>
			</g>
		</g>
	</g>
	<polygon clip-path="url(#SVGID_2_)" fill="#3DBFEC" points="68.467,73.864 128.114,38.305 110.086,29.121 68.696,55.083 	"/>
	<polygon clip-path="url(#SVGID_2_)" fill="#3DBFEC" points="68.696,55.083 24.459,32.247 7.684,41.684 68.646,73.757 	"/>
	<polygon clip-path="url(#SVGID_2_)" fill="#EB214B" points="49.818,17.214 66.818,26.256 84.374,15.762 67.103,6.893 	"/>
	<path clip-path="url(#SVGID_2_)" fill="#213366" d="M215.423,117.124l-8.857-20.833h-43.414l-8.981,20.833h-16.218l40.17-88.824
		h13.098l40.295,88.824H215.423z M168.516,83.816h32.686l-16.343-38.05L168.516,83.816z"/>
	<g clip-path="url(#SVGID_2_)">
		<defs>
			<rect id="SVGID_23_" width="576" height="144"/>
		</defs>
		<clipPath id="SVGID_24_">
			<use xlink:href="#SVGID_23_"  overflow="visible"/>
		</clipPath>
		<path clip-path="url(#SVGID_24_)" fill="#213366" d="M326.452,58.928c3.493,4.284,5.239,10.79,5.239,19.523v38.673h-15.594V78.951
			c0-4.99-0.811-8.588-2.432-10.792c-1.623-2.202-4.306-3.306-8.047-3.306c-4.326,0-7.716,1.518-10.167,4.554
			c-2.454,3.036-3.681,7.216-3.681,12.537v35.18h-15.593V78.951c0-4.907-0.854-8.483-2.558-10.729
			c-1.706-2.246-4.388-3.369-8.046-3.369c-4.326,0-7.735,1.518-10.23,4.554c-2.496,3.036-3.743,7.216-3.743,12.537v35.18h-15.469
			v-45.16c0-6.652-0.333-12.599-0.998-17.84h14.595l1.124,9.981c1.828-3.743,4.469-6.612,7.921-8.609
			c3.45-1.995,7.423-2.993,11.914-2.993c9.647,0,15.926,3.992,18.838,11.976c1.996-3.742,4.844-6.675,8.545-8.795
			c3.7-2.12,7.838-3.181,12.413-3.181C317.636,52.503,322.959,54.645,326.452,58.928"/>
		<path clip-path="url(#SVGID_24_)" fill="#213366" d="M404.669,54.124v63h-15.345V107.02c-1.915,3.492-4.658,6.219-8.232,8.171
			c-3.578,1.953-7.654,2.933-12.227,2.933c-5.489,0-10.354-1.33-14.596-3.992c-4.242-2.661-7.528-6.445-9.855-11.354
			c-2.329-4.905-3.493-10.604-3.493-17.09c0-6.487,1.185-12.246,3.556-17.279c2.369-5.03,5.676-8.939,9.918-11.726
			c4.241-2.786,9.063-4.179,14.471-4.179c4.572,0,8.648,0.979,12.227,2.932c3.574,1.955,6.317,4.678,8.232,8.171v-9.482H404.669z
			 M385.083,100.532c2.826-3.575,4.241-8.607,4.241-15.095c0-6.652-1.415-11.768-4.241-15.343
			c-2.829-3.576-6.861-5.365-12.101-5.365c-5.159,0-9.171,1.851-12.039,5.551c-2.869,3.701-4.305,8.838-4.305,15.407
			c0,6.486,1.436,11.477,4.305,14.97c2.868,3.493,6.924,5.239,12.164,5.239C378.262,105.896,382.254,104.109,385.083,100.532"/>
		<path clip-path="url(#SVGID_24_)" fill="#213366" d="M478.021,25.307v91.817h-15.345V107.02c-1.914,3.492-4.657,6.219-8.232,8.171
			c-3.578,1.953-7.653,2.933-12.227,2.933c-5.407,0-10.229-1.373-14.47-4.117c-4.243-2.745-7.549-6.632-9.919-11.665
			c-2.37-5.03-3.555-10.791-3.555-17.277s1.162-12.184,3.492-17.092c2.328-4.905,5.613-8.71,9.855-11.414
			c4.241-2.701,9.105-4.054,14.596-4.054c4.491,0,8.503,0.936,12.039,2.807c3.534,1.872,6.257,4.512,8.172,7.922V25.307H478.021z
			 M458.373,100.532c2.868-3.575,4.303-8.648,4.303-15.22c0-6.569-1.415-11.643-4.241-15.218c-2.829-3.576-6.821-5.365-11.976-5.365
			c-5.24,0-9.295,1.767-12.163,5.302c-2.87,3.536-4.305,8.546-4.305,15.032c0,6.571,1.435,11.686,4.305,15.345
			c2.868,3.66,6.88,5.488,12.038,5.488C451.49,105.896,455.503,104.109,458.373,100.532"/>
		<rect x="490.121" y="25.558" clip-path="url(#SVGID_24_)" fill="#EB214B" width="17.34" height="15.343"/>
		<rect x="491.119" y="54.125" clip-path="url(#SVGID_24_)" fill="#213366" width="15.469" height="63"/>
		<path clip-path="url(#SVGID_24_)" fill="#213366" d="M515.692,110.139l4.366-10.979c6.737,4.99,14.429,7.485,23.08,7.485
			c3.742,0,6.631-0.624,8.67-1.871c2.037-1.247,3.056-2.995,3.056-5.239c0-1.913-0.707-3.432-2.12-4.554
			c-1.415-1.124-3.826-2.1-7.236-2.933L535.03,89.68c-11.478-2.496-17.217-8.359-17.217-17.591c0-3.824,1.08-7.213,3.244-10.167
			c2.162-2.95,5.198-5.259,9.107-6.923c3.906-1.663,8.439-2.496,13.597-2.496c4.491,0,8.814,0.687,12.975,2.06
			c4.157,1.37,7.817,3.348,10.977,5.924l-4.614,10.604c-6.322-4.657-12.809-6.986-19.462-6.986c-3.576,0-6.361,0.668-8.358,1.997
			c-1.995,1.33-2.993,3.161-2.993,5.488c0,1.831,0.602,3.287,1.809,4.366c1.203,1.081,3.264,1.996,6.175,2.745l10.729,2.37
			c6.237,1.415,10.791,3.599,13.659,6.549c2.87,2.953,4.306,6.8,4.306,11.54c0,5.822-2.332,10.438-6.987,13.847
			c-4.658,3.412-11.021,5.116-19.087,5.116C531.494,118.123,522.43,115.461,515.692,110.139"/>
	</g>
</g>
</svg>
